<svg xmlns="http://www.w3.org/2000/svg" xmlns:xlink="http://www.w3.org/1999/xlink" viewBox="0 0 26.53 27.41"><defs><style>.cls-1{fill:#4056a5;}.cls-1,.cls-2,.cls-3{fill-rule:evenodd;}.cls-2,.cls-5{fill:#fff;}.cls-3{fill:url(#linear-gradient);}.cls-4{fill:#939598;}</style><linearGradient id="linear-gradient" x1="40.91" y1="20.31" x2="44.61" y2="20.08" gradientTransform="translate(-19.92 -11.64) rotate(3.49)" gradientUnits="userSpaceOnUse"><stop offset="0" stop-color="#009cd4"/><stop offset="0.06" stop-color="#039dd4"/><stop offset="0.11" stop-color="#0da0d6"/><stop offset="0.15" stop-color="#1da6d8"/><stop offset="0.19" stop-color="#35addb"/><stop offset="0.23" stop-color="#53b7df"/><stop offset="0.26" stop-color="#78c3e4"/><stop offset="0.3" stop-color="#a4d2ea"/><stop offset="0.33" stop-color="#d5e2f1"/><stop offset="0.35" stop-color="#f0ebf5"/></linearGradient></defs><title>Asset 4</title><g id="Layer_2" data-name="Layer 2"><g id="Layer_1-2" data-name="Layer 1"><path class="cls-1" d="M26.53,13.71a13.49,13.49,0,0,1-13.27,13.7A13.49,13.49,0,0,1,0,13.71,13.49,13.49,0,0,1,13.26,0,13.5,13.5,0,0,1,26.53,13.71Z"/><path class="cls-2" d="M10,17.59c0,1.11,0,2.15,0,3.18a16.37,16.37,0,0,1-.34,3.12c-.12.54-.11.54-.63.54H7.19a11.49,11.49,0,0,0,.39-2.26c0-.7.13-1.4.13-2.11,0-3,0-6,0-9A6.13,6.13,0,0,1,8.88,7.38a5.9,5.9,0,0,1,1.74-1.51A6.61,6.61,0,0,1,12.93,5a6,6,0,0,1,2,0A5.26,5.26,0,0,1,17,5.91,5.48,5.48,0,0,1,18.9,8.38,7.68,7.68,0,0,1,19.36,12a7.37,7.37,0,0,1-1.6,4.12,7.09,7.09,0,0,1-2.4,2.06,4.88,4.88,0,0,1-2.65.49A5.37,5.37,0,0,1,10,17.59Zm0-4.73a12.93,12.93,0,0,0,.08,2.41,2.92,2.92,0,0,0,2.28,2.47,3.27,3.27,0,0,0,3.2-.81,5.27,5.27,0,0,0,1.56-3.63A8.72,8.72,0,0,0,17,11.08a6.14,6.14,0,0,0-.89-2.38,4.57,4.57,0,0,0-4.24-2.38,1.6,1.6,0,0,0-1.43.88A5.26,5.26,0,0,0,10,9.4c-.06.84,0,1.7,0,2.54Z"/><path class="cls-3" d="M20.11,11.08a.58.58,0,1,1,.54.61A.57.57,0,0,1,20.11,11.08Z"/><path class="cls-4" d="M18.32,5l.34.3.34.31c.22.21.43.43.63.65s.39.47.57.72c0,.06.09.12.13.19l.06.1.06.09.12.2.1.2a7.58,7.58,0,0,1,.69,1.7l0,.11,0,.11,0,.22.05.23,0,.11s0,.08,0,.11l0,.23c0,.08,0,.15,0,.23s0,.31,0,.46v.46c0,.15,0,.3,0,.46s0,.15,0,.22l0,.23,0,.11,0,.12-.05.22a6.93,6.93,0,0,1-.62,1.72,8.27,8.27,0,0,1-1,1.53c-.2.23-.4.45-.62.67l-.33.31-.17.15-.17.14a7.73,7.73,0,0,0,.64-.64c.21-.21.4-.45.59-.68a8.67,8.67,0,0,0,.95-1.53,7.45,7.45,0,0,0,.59-1.7,7.69,7.69,0,0,0,.15-1.79c0-.15,0-.3,0-.45l0-.22,0-.22s0-.08,0-.11l0-.11,0-.22-.06-.22,0-.11,0-.11-.06-.22c0-.07,0-.14-.07-.21s-.1-.29-.15-.43-.06-.14-.08-.21l-.09-.2c-.07-.14-.13-.28-.2-.41s-.07-.13-.1-.2l-.12-.19-.05-.1-.06-.1L20.11,7q-.25-.37-.54-.72A14.15,14.15,0,0,0,18.32,5Z"/><path class="cls-5" d="M18.44,3.77a10.63,10.63,0,0,1,1.65,1.49c.12.14.24.29.35.44l.15.23.08.12a.41.41,0,0,1,.07.11,7.86,7.86,0,0,1,.53,1l.12.25.1.26a2,2,0,0,1,.1.26l.05.13,0,.13a2.76,2.76,0,0,1,.08.27l.08.27a2.68,2.68,0,0,0,.07.27l0,.14,0,.13a11.06,11.06,0,0,1,.21,2.22,10.51,10.51,0,0,1-.06,1.12c0,.37-.1.74-.17,1.1s-.18.72-.3,1.08a10.11,10.11,0,0,1-.42,1,9.35,9.35,0,0,1-.54,1c-.1.15-.2.31-.31.46l-.34.44-.37.42c-.12.13-.25.27-.39.4l-.4.37-.44.35a8.36,8.36,0,0,0,.81-.76c.13-.13.25-.26.37-.4l.35-.43c.12-.15.22-.3.33-.45l.3-.46a10,10,0,0,0,.51-1l.11-.26a2.6,2.6,0,0,0,.1-.25l.05-.13.05-.13.09-.26c.11-.35.2-.7.28-1.06s.13-.72.17-1.09.05-.73.06-1.1a10.66,10.66,0,0,0-.86-4.28,9.11,9.11,0,0,0-.51-1,.75.75,0,0,0-.07-.12L20.51,6l-.15-.24c-.1-.15-.22-.29-.33-.44a9.46,9.46,0,0,0-.75-.8C19,4.25,18.73,4,18.44,3.77Z"/></g></g></svg>